<svg width="284" height="249" viewBox="0 0 284 249" fill="none" xmlns="http://www.w3.org/2000/svg">
<rect x="12" width="260" height="517" rx="50" fill="#1C1C21"/>
<rect y="62" width="284" height="143" rx="35" fill="#D7FF8D"/>
<g clip-path="url(#clip0_207_5736)">
<path d="M106.043 163.042C122.082 163.042 135.085 150.039 135.085 134C135.085 117.96 122.082 104.957 106.043 104.957C90.0028 104.957 77 117.96 77 134C77 150.039 90.0028 163.042 106.043 163.042Z" fill="#0098EA"/>
<path d="M115.959 121.167H96.125C92.4783 121.167 90.1669 125.101 92.0016 128.281L104.242 149.497C105.041 150.883 107.043 150.883 107.841 149.497L120.085 128.281C121.917 125.106 119.605 121.167 115.961 121.167H115.959ZM104.232 143.135L101.566 137.975L95.1341 126.471C94.7098 125.735 95.2339 124.791 96.1225 124.791H104.23V143.137L104.232 143.135ZM116.945 126.469L110.515 137.978L107.849 143.135V124.789H115.956C116.845 124.789 117.369 125.732 116.945 126.469Z" fill="white"/>
</g>
<g clip-path="url(#clip1_207_5736)">
<path d="M177.957 163.042C193.997 163.042 207 150.039 207 134C207 117.96 193.997 104.957 177.957 104.957C161.918 104.957 148.915 117.96 148.915 134C148.915 150.039 161.918 163.042 177.957 163.042Z" fill="#29C482"/>
<path d="M178.005 150.17C177.107 150.17 176.438 149.677 176.438 148.615V146.852C173.953 146.624 171.698 145.771 170.188 144.463C168.984 143.439 168.277 142.225 168.277 141.107C168.277 139.988 169.022 139.324 170.054 139.324C170.704 139.324 171.105 139.514 172.004 140.519C173.743 142.567 175.654 143.477 178.158 143.477C181.446 143.477 183.338 141.979 183.338 139.571C183.338 137.712 182.134 136.632 179.248 135.93L175.138 134.925C170.972 133.958 168.735 131.512 168.735 127.985C168.735 123.889 171.793 121.045 176.572 120.609V118.959C176.572 117.897 177.241 117.404 178.12 117.404C178.999 117.404 179.687 117.897 179.687 118.959V120.666C181.962 120.969 184.007 121.822 185.383 123.15C186.492 124.193 187.141 125.387 187.141 126.43C187.141 127.435 186.434 128.08 185.479 128.08C184.714 128.08 184.16 127.776 183.376 126.866C181.713 124.818 180.146 124.003 177.833 124.003C174.928 124.003 173.055 125.52 173.055 127.701C173.055 129.445 174.297 130.697 176.725 131.246L180.777 132.213C185.44 133.294 187.638 135.532 187.638 139.191C187.638 143.439 184.542 146.359 179.534 146.871V148.615C179.534 149.677 178.884 150.17 178.005 150.17Z" fill="white"/>
</g>
<defs>
<clipPath id="clip0_207_5736">
<rect width="58.0851" height="58.0851" fill="white" transform="translate(77 104.957)"/>
</clipPath>
<clipPath id="clip1_207_5736">
<rect width="58.0851" height="58.0851" fill="white" transform="translate(148.915 104.957)"/>
</clipPath>
</defs>
</svg>
