<svg width="300" height="229" viewBox="0 0 300 229" fill="none" xmlns="http://www.w3.org/2000/svg">
<path d="M422.046 0L389.569 253L211.023 253L0.000701904 -1.84482e-05L422.046 0Z" fill="#1C1C21"/>
<g clip-path="url(#clip0_207_5717)">
<mask id="mask0_207_5717" style="mask-type:luminance" maskUnits="userSpaceOnUse" x="182" y="0" width="184" height="109">
<path d="M365.012 0H182.506V108.363H365.012V0Z" fill="white"/>
</mask>
<g mask="url(#mask0_207_5717)">
<path d="M273.759 79.8465C324.156 79.8465 365.012 40.2679 365.012 -8.55477C365.012 -57.3774 324.156 -96.9561 273.759 -96.9561C223.361 -96.9561 182.506 -57.3774 182.506 -8.55477C182.506 40.2679 223.361 79.8465 273.759 79.8465Z" fill="white"/>
<path d="M301.479 34.6127C320.818 34.6127 336.495 18.9354 336.495 -0.403603C336.495 -19.7426 320.818 -35.4199 301.479 -35.4199C282.14 -35.4199 266.462 -19.7426 266.462 -0.403603C266.462 18.9354 282.14 34.6127 301.479 34.6127Z" fill="#1C1C21"/>
</g>
</g>
<g clip-path="url(#clip1_207_5717)">
<mask id="mask1_207_5717" style="mask-type:luminance" maskUnits="userSpaceOnUse" x="57" y="0" width="183" height="109">
<path d="M239.539 0H57.0331V108.363H239.539V0Z" fill="white"/>
</mask>
<g mask="url(#mask1_207_5717)">
<path d="M148.286 79.8465C198.684 79.8465 239.539 40.2679 239.539 -8.55477C239.539 -57.3774 198.684 -96.9561 148.286 -96.9561C97.8885 -96.9561 57.0332 -57.3774 57.0332 -8.55477C57.0332 40.2679 97.8885 79.8465 148.286 79.8465Z" fill="white"/>
<path d="M176.006 34.6127C195.345 34.6127 211.022 18.9354 211.022 -0.403603C211.022 -19.7426 195.345 -35.4199 176.006 -35.4199C156.667 -35.4199 140.99 -19.7426 140.99 -0.403603C140.99 18.9354 156.667 34.6127 176.006 34.6127Z" fill="#1C1C21"/>
</g>
</g>
<defs>
<clipPath id="clip0_207_5717">
<rect width="182.506" height="108.363" fill="white" transform="translate(182.506)"/>
</clipPath>
<clipPath id="clip1_207_5717">
<rect width="182.506" height="108.363" fill="white" transform="translate(57.0331)"/>
</clipPath>
</defs>
</svg>
